<svg width="19" height="21" viewBox="0 0 19 21" fill="none" xmlns="http://www.w3.org/2000/svg">
<g clip-path="url(#clip0)">
<path d="M18.991 10.6819C18.991 9.88528 18.9264 9.30393 18.7865 8.70105H9.68933V12.2968H15.0291C14.9215 13.1904 14.3402 14.5361 13.0482 15.4404L13.0301 15.5608L15.9065 17.7891L16.1058 17.809C17.9359 16.1187 18.991 13.6318 18.991 10.6819Z" fill="#4285F4"/>
<path d="M9.68933 20.1559C12.3054 20.1559 14.5016 19.2946 16.1058 17.8089L13.0482 15.4404C12.2301 16.011 11.1319 16.4093 9.68933 16.4093C7.12708 16.4093 4.95239 14.7191 4.17718 12.3829L4.06355 12.3926L1.07268 14.7072L1.03357 14.816C2.6269 17.9811 5.89972 20.1559 9.68933 20.1559Z" fill="#34A853"/>
<path d="M4.17711 12.383C3.97256 11.7801 3.85418 11.1341 3.85418 10.4666C3.85418 9.79912 3.97256 9.15319 4.16634 8.55031L4.16093 8.42191L1.13258 6.07007L1.0335 6.1172C0.376809 7.43065 0 8.9056 0 10.4666C0 12.0277 0.376809 13.5026 1.0335 14.816L4.17711 12.383Z" fill="#FBBC05"/>
<path d="M9.68933 4.52383C11.5087 4.52383 12.736 5.30973 13.4358 5.9665L16.1703 3.29655C14.4909 1.73551 12.3054 0.777344 9.68933 0.777344C5.89972 0.777344 2.6269 2.95203 1.03357 6.11716L4.16642 8.55027C4.95239 6.21409 7.12708 4.52383 9.68933 4.52383Z" fill="#EB4335"/>
</g>
<defs>
<clipPath id="clip0">
<rect width="19" height="19.4453" fill="white" transform="translate(0 0.777344)"/>
</clipPath>
</defs>
</svg>
